<?xml version="1.0" encoding="utf-8"?>
<!-- Generator: Adobe Illustrator 23.0.0, SVG Export Plug-In . SVG Version: 6.00 Build 0)  -->
<svg version="1.1" id="Layer_1" xmlns="http://www.w3.org/2000/svg" xmlns:xlink="http://www.w3.org/1999/xlink" x="0px" y="0px"
	 viewBox="0 0 131.7 119.16" style="enable-background:new 0 0 131.7 119.16;" xml:space="preserve">
<path d="M68.05,14.68c18.64-0.02,33.67,14.92,33.66,33.46c-0.01,18.67-15.03,33.71-33.68,33.73C49.67,81.89,34.5,66.76,34.5,48.43
	C34.5,29.63,49.34,14.7,68.05,14.68z M68.24,26.43c-11.98-0.13-21.83,9.56-21.92,21.55c-0.09,12.19,9.49,21.95,21.65,22.05
	c11.92,0.1,21.8-9.52,21.93-21.36C90.03,36.35,80.51,26.56,68.24,26.43z"/>
<path d="M34.86,87.06c4.1,0,7.77,0,11.68,0c0.59,7.1,3.95,12.7,9.78,16.65c3.74,2.54,8,3.78,12.58,3.63
	c10.99-0.36,17.66-6.64,21.47-20.24c3.71,0,7.43,0,11.4,0c-0.82,11.53-5.84,20.54-15.49,26.54c-11.32,7.04-23.17,7.27-34.75,0.66
	C41.19,108.42,35.94,99.1,34.86,87.06z"/>
<path d="M102.92,7.85c0.03,3.6-2.84,6.56-6.41,6.63c-3.65,0.07-6.68-2.93-6.67-6.59c0.01-3.57,2.95-6.5,6.53-6.51
	C99.96,1.37,102.89,4.26,102.92,7.85z"/>
</svg>
